<?xml version="1.0" encoding="utf-8"?>
<!-- Generator: Adobe Illustrator 24.0.0, SVG Export Plug-In . SVG Version: 6.00 Build 0)  -->
<svg version="1.1" id="Layer_1" xmlns="http://www.w3.org/2000/svg" xmlns:xlink="http://www.w3.org/1999/xlink" x="0px" y="0px"
	 viewBox="0 0 180 60" style="enable-background:new 0 0 180 60;" xml:space="preserve">
<style type="text/css">
	.st0{fill:none;}
	.st1{fill:#3B5A9A;}
	.st2{fill:#FBEF29;}
	.st3{fill:#3D1F1A;}
	.st4{fill:#22B2DF;}
	.st5{fill:#FFFFFF;}
</style>
<g>
	<path class="st0" d="M28.63,18.04c-1.8,1.64-2.54,4.31-2.54,6.72v0.78h-2.62v4.59h2.62v15.46h6.27V30.14h3.98v-4.59h-4.02v-1.02
		c0-1.97,0.86-3.57,2.91-3.57c0.82,0,1.48,0.12,2.01,0.29l0.25-4.8c-0.86-0.25-1.93-0.41-3.32-0.41
		C32.36,16.03,30.19,16.56,28.63,18.04z"/>
	<path class="st1" d="M30,10c-11.05,0-20,8.95-20,20c0,11.05,8.95,20,20,20s20-8.95,20-20C50,18.95,41.05,10,30,10z M37.24,21.24
		c-0.53-0.16-1.19-0.29-2.01-0.29c-2.05,0-2.91,1.6-2.91,3.57v1.02h4.02v4.59h-3.98v15.46h-6.27V30.14h-2.62v-4.59h2.62v-0.78
		c0-2.42,0.74-5.08,2.54-6.72c1.56-1.48,3.73-2.01,5.53-2.01c1.39,0,2.46,0.16,3.32,0.41L37.24,21.24z"/>
</g>
<g>
	<polygon class="st2" points="85.71,27.64 81.82,27.64 81.82,28.6 83.17,28.6 83.17,32.7 84.32,32.7 84.32,28.6 85.71,28.6 	"/>
	<path class="st2" d="M86.95,27.64L85.4,32.7h1.19l0.36-1.3h1.45l0.39,1.3h1.23l-1.57-5.06H86.95z M87.11,30.55l0.3-1.07
		c0.08-0.29,0.16-0.68,0.23-0.98h0.02c0.08,0.3,0.17,0.68,0.25,0.98l0.32,1.07H87.11z"/>
	<path class="st2" d="M90,10c-11.05,0-20,8.95-20,20c0,11.05,8.95,20,20,20s20-8.95,20-20C110,18.95,101.05,10,90,10z M90,39
		c-0.53,0-1.05-0.04-1.56-0.1C85.1,40.64,81.01,42.15,80,42c1.38-1.85,2.87-3.32,3.78-4.58C80.89,35.8,79,33.08,79,30
		c0-4.97,4.92-9,11-9s11,4.03,11,9C101,34.97,96.08,39,90,39z"/>
	<path class="st2" d="M97.17,27.64l-1.15,1.68c-0.11,0.18-0.23,0.36-0.35,0.56h-0.02v-2.24h-1.13v5.06h1.13v-1.65l0.44-0.53
		l1.24,2.18h1.34l-1.76-2.9l1.67-2.15H97.17z"/>
	<polygon class="st2" points="91.84,27.64 90.69,27.64 90.69,32.7 93.85,32.7 93.85,31.74 91.84,31.74 	"/>
	<path class="st3" d="M90,21c-6.08,0-11,4.03-11,9c0,3.08,1.89,5.8,4.78,7.42C82.87,38.68,81.38,40.15,80,42
		c1.01,0.15,5.1-1.36,8.44-3.1C88.95,38.96,89.47,39,90,39c6.08,0,11-4.03,11-9C101,25.03,96.08,21,90,21z M84.32,32.7h-1.15v-4.1
		h-1.36v-0.96h3.89v0.96h-1.38V32.7z M88.79,32.7l-0.39-1.3h-1.45l-0.36,1.3H85.4l1.55-5.06h1.5l1.57,5.06H88.79z M93.85,32.7h-3.16
		v-5.06h1.15v4.1h2.01V32.7z M98.67,32.7h-1.34l-1.24-2.18l-0.44,0.53v1.65h-1.13v-5.06h1.13v2.24h0.02
		c0.11-0.2,0.23-0.38,0.35-0.56l1.15-1.68h1.4L96.9,29.8L98.67,32.7z"/>
	<path class="st3" d="M87.66,28.5h-0.02c-0.08,0.3-0.15,0.68-0.23,0.98l-0.3,1.07h1.12l-0.32-1.07
		C87.83,29.18,87.74,28.8,87.66,28.5z"/>
</g>
<circle class="st4" cx="150" cy="30" r="20"/>
<path class="st5" d="M142,20"/>
<path class="st5" d="M144,24c0,0,1,1,4,3c0.83,0.55,1,0,1,0s1-5,4-5c1.34,0,2.28,0.4,2.91,0.84c0.7,0.49,1.09,1.31,1.09,2.16v0l2,1
	c0,0-0.44-0.11-1,0c-0.43,0.08-0.92,1.42-0.87,1.85c0.3,2.46,0.62,9.5-5.13,11.15c-7,2-11,1-11,1l2.47-1.62
	c0.75-0.19,1.09-1.04,0.69-1.69c-1.54-2.46-4.43-7.44-2.16-6.69c3,1,0-1,0-1s-4-4-1-3c3.42,1.14,1-1,1-1S136,17,144,24z"/>
</svg>
